<svg id="Layer_1" data-name="Layer 1" xmlns="http://www.w3.org/2000/svg" viewBox="0 0 144 56">
  <defs>
    <style>
      .cls-1 {
        fill: #fff;
      }
    </style>
  </defs>
  <title>svg_assets</title>
  <g>
    <path class="cls-1" d="M16.93,15.84a27.42,27.42,0,0,1,5.65-.68,18,18,0,0,1,4.56.52,12,12,0,0,1,3.55,1.52,11.72,11.72,0,0,1,2.64,2.33,12.61,12.61,0,0,1,1.82,2.93,17,17,0,0,1,1.09,3.36,23.58,23.58,0,0,1,.52,5,25.75,25.75,0,0,1-.52,5.12,23.35,23.35,0,0,1-1.56,4.87,18.43,18.43,0,0,1-2.63,4.26,16,16,0,0,1-3.69,3.28,14.16,14.16,0,0,1-4.76,1.93,13.36,13.36,0,0,1-1.86.26,16.83,16.83,0,0,1-1.89,0q-0.93,0-1.77-.16a12.28,12.28,0,0,1-1.5-.3,1.35,1.35,0,0,1-.43-0.1,0.76,0.76,0,0,1-.27-0.2,0.93,0.93,0,0,1-.17-0.33c0-.14-0.09-0.31-0.13-0.53q-0.68-3.17-1.24-6.53a62.51,62.51,0,0,1-.74-6.63,39.79,39.79,0,0,1,.13-6.35,20.68,20.68,0,0,1,1.37-5.68,4.57,4.57,0,0,1,2.26-1.47A2.77,2.77,0,0,1,20,23.36a12.34,12.34,0,0,0-.9,3,23.17,23.17,0,0,0-.34,3.26q-0.06,1.68,0,3.4T19,36.33q0.11,1.81.2,3.1t0.18,2.25q0.1,1,.2,1.67t0.25,1.39q0.15,0.71.3,1.17a1.78,1.78,0,0,0,.39.71,1,1,0,0,0,.64.29,3.33,3.33,0,0,0,1-.09,9.11,9.11,0,0,0,3.47-1.54,12.58,12.58,0,0,0,2.73-2.71,16.12,16.12,0,0,0,2-3.51,21.45,21.45,0,0,0,1.2-4A22.06,22.06,0,0,0,32,31a17.32,17.32,0,0,0-.37-3.83,10.5,10.5,0,0,0-1.58-3.81,8.53,8.53,0,0,0-2.67-2.52,9,9,0,0,0-3.54-1.18,12.45,12.45,0,0,0-4.17.23,27,27,0,0,0-3.14.88A18.08,18.08,0,0,0,13.77,22a10.33,10.33,0,0,0-2.15,1.53,4.5,4.5,0,0,0-1.22,1.81q-0.93,2.46-1.57,3.83a2.45,2.45,0,0,1-1.26,1.5q-0.84.18-1.25-1.75a11,11,0,0,1-.24-3.47,9.23,9.23,0,0,1,.79-2.94,8.84,8.84,0,0,1,1.64-2.41,12.31,12.31,0,0,1,2.33-1.9,16,16,0,0,1,2.86-1.43A22.07,22.07,0,0,1,16.93,15.84Z"/>
    <path class="cls-1" d="M59.28,36.51a18.09,18.09,0,0,1-.87,1.69,14.68,14.68,0,0,1-1.31,1.92,10.56,10.56,0,0,1-1.7,1.68,4.84,4.84,0,0,1-2,1,3,3,0,0,1-2.28-.36,6.77,6.77,0,0,1-2-2,9.59,9.59,0,0,1-.89,1.33A10.3,10.3,0,0,1,47,43a9.63,9.63,0,0,1-1.49,1.09,5.52,5.52,0,0,1-1.66.66,4.56,4.56,0,0,1-1.87,0A4.76,4.76,0,0,1,40.26,44a5.33,5.33,0,0,1-1.44-1.47,6.19,6.19,0,0,1-.89-2.18,11.71,11.71,0,0,1-.23-3,16.41,16.41,0,0,1,.47-3.19,17.13,17.13,0,0,1,1.08-3.08,13.7,13.7,0,0,1,1.63-2.69,10.53,10.53,0,0,1,2.09-2,6.48,6.48,0,0,1,2.47-1.12,1.22,1.22,0,0,1,.72,0,1.77,1.77,0,0,1,.5.3l0.41,0.36a0.9,0.9,0,0,0,.45.22,1.78,1.78,0,0,0,.49,0,4.16,4.16,0,0,0,.49-0.08l0.43-.1,0.43-.1a2.41,2.41,0,0,1,.55-0.06,0.92,0.92,0,0,1,.49.15,1.3,1.3,0,0,1,.41.47,3.4,3.4,0,0,1,.31.91,12.42,12.42,0,0,1,.25,2.07q0,1.16.07,2.38t0.09,2.44a14.2,14.2,0,0,0,.29,2.27,4.9,4.9,0,0,0,.46,1.37,0.68,0.68,0,0,0,.81.36,2.08,2.08,0,0,0,.8-0.38,5.34,5.34,0,0,0,.77-0.72,10.24,10.24,0,0,0,.74-0.93q0.36-.51.67-1a30,30,0,0,0,1.39-2.74Zm-16.63,2a6.45,6.45,0,0,0,.27.91,2.83,2.83,0,0,0,.41.75,1.6,1.6,0,0,0,.58.47,1.18,1.18,0,0,0,.77.06,1.76,1.76,0,0,0,1.15-.89,6.05,6.05,0,0,0,.68-1.68,10.86,10.86,0,0,0,.3-1.92,11.18,11.18,0,0,0,0-1.6l0-5.86a3.33,3.33,0,0,0-1.44.72,5.83,5.83,0,0,0-1.17,1.36,9.65,9.65,0,0,0-.88,1.79,12.09,12.09,0,0,0-.57,2,11.61,11.61,0,0,0-.21,2A8.21,8.21,0,0,0,42.65,38.51Z"/>
    <path class="cls-1" d="M73,34q-1.6,1.46-2.86,2.57t-2.26,1.89a15,15,0,0,1-1.81,1.23,5.55,5.55,0,0,1-1.52.61,4.09,4.09,0,0,1-2.75-.33,6.76,6.76,0,0,1-2.4-2.13,16.15,16.15,0,0,1-2-3.76,34.87,34.87,0,0,1-1.51-5.21q-0.25-1.15-.43-2.46t-0.29-2.63q-0.59,0-.92,0h-0.7l-0.93,0L51,24a1.72,1.72,0,0,1-.75-0.07,1.06,1.06,0,0,1-.45-0.3,1.23,1.23,0,0,1-.23-0.43c0-.16-0.08-0.29-0.11-0.41a0.65,0.65,0,0,1,.25-0.66,3.15,3.15,0,0,1,.89-0.5,8.9,8.9,0,0,1,1.26-.38L53.23,21l1.15-.22a3.89,3.89,0,0,0,.69-0.18,44.13,44.13,0,0,1,.23-5.27,28.91,28.91,0,0,1,.85-4.68,12.13,12.13,0,0,1,1.5-3.48,3.57,3.57,0,0,1,2.2-1.66,2.68,2.68,0,0,1,1.6.14,4.11,4.11,0,0,1,1.42,1A6.38,6.38,0,0,1,64,8.21a8.84,8.84,0,0,1,.72,2.07,8.09,8.09,0,0,1,.16,2,15.22,15.22,0,0,1-.27,2.28A22.8,22.8,0,0,1,64,17q-0.38,1.24-.83,2.48l0.58-.09,0.93-.17L65.8,19,67,18.82l1.08-.19,0.83-.14a0.63,0.63,0,0,1,.64.26,2.18,2.18,0,0,1,.37.88,1.59,1.59,0,0,1-.15,1.17,1.15,1.15,0,0,1-.75.6L61.68,23q-0.39.88-.79,1.74t-0.75,1.55q0.18,1.2.37,2.36l0.18,1,0.19,1c0.06,0.35.12,0.68,0.18,1s0.12,0.61.18,0.88a6.9,6.9,0,0,0,.56,1.7,3.15,3.15,0,0,0,.8,1,2.12,2.12,0,0,0,1,.46,3.35,3.35,0,0,0,1.22-.05,3.53,3.53,0,0,0,1-.41A11.56,11.56,0,0,0,67,34.51q0.64-.49,1.34-1.12t1.35-1.34q0.66-.71,1.23-1.46a14.15,14.15,0,0,0,1-1.51ZM61.68,11.12a4.32,4.32,0,0,0-.13-0.46,1.83,1.83,0,0,0-.23-0.46,0.86,0.86,0,0,0-1-.35,1.41,1.41,0,0,0-.81,1.09A13.28,13.28,0,0,0,59,13.39q-0.17,1.47-.23,3.2t-0.07,3.35l0.59-.06,0.61-.06q0.36-1.1.74-2.37T61.32,15q0.26-1.2.38-2.23A5.22,5.22,0,0,0,61.68,11.12Z"/>
    <path class="cls-1" d="M92.29,29.4a18.06,18.06,0,0,1-.87,1.68A14.68,14.68,0,0,1,90.11,33a10.63,10.63,0,0,1-1.7,1.68,4.86,4.86,0,0,1-2,1,3,3,0,0,1-2.28-.36,6.79,6.79,0,0,1-2-2,9.4,9.4,0,0,1-.89,1.33,10.29,10.29,0,0,1-1.24,1.32A9.51,9.51,0,0,1,78.56,37a5.55,5.55,0,0,1-1.66.66,4.61,4.61,0,0,1-1.87,0,4.74,4.74,0,0,1-1.77-.74,5.32,5.32,0,0,1-1.43-1.47A6.18,6.18,0,0,1,71,33.27a11.67,11.67,0,0,1-.23-3,16.41,16.41,0,0,1,.47-3.19A17.09,17.09,0,0,1,72.27,24a13.7,13.7,0,0,1,1.63-2.69,10.52,10.52,0,0,1,2.09-2,6.47,6.47,0,0,1,2.47-1.12,1.22,1.22,0,0,1,.72,0,1.78,1.78,0,0,1,.5.3l0.41,0.36a0.9,0.9,0,0,0,.45.22,1.78,1.78,0,0,0,.49,0A4.16,4.16,0,0,0,81.52,19l0.43-.1,0.43-.1a2.44,2.44,0,0,1,.55-0.06,0.92,0.92,0,0,1,.49.15,1.29,1.29,0,0,1,.41.47,3.41,3.41,0,0,1,.31.91,12.42,12.42,0,0,1,.25,2.07q0,1.16.07,2.38t0.09,2.44a14.2,14.2,0,0,0,.29,2.27,4.88,4.88,0,0,0,.46,1.37,0.68,0.68,0,0,0,.81.36,2.07,2.07,0,0,0,.8-0.38,5.28,5.28,0,0,0,.77-0.72,10.18,10.18,0,0,0,.74-0.93q0.36-.51.67-1a29.93,29.93,0,0,0,1.39-2.74Zm-16.63,2a6.45,6.45,0,0,0,.27.91,2.84,2.84,0,0,0,.41.75,1.6,1.6,0,0,0,.58.47,1.19,1.19,0,0,0,.77.06,1.76,1.76,0,0,0,1.15-.89A6.07,6.07,0,0,0,79.52,31a10.76,10.76,0,0,0,.29-1.92,11.21,11.21,0,0,0,0-1.6l0-5.86a3.33,3.33,0,0,0-1.44.72,5.83,5.83,0,0,0-1.17,1.36,9.7,9.7,0,0,0-.88,1.79,12.09,12.09,0,0,0-.57,2,11.7,11.7,0,0,0-.21,2A8.21,8.21,0,0,0,75.66,31.4Z"/>
    <path class="cls-1" d="M89,10.2A3.29,3.29,0,0,1,89.39,8a3.52,3.52,0,0,1,1-1.07,4.32,4.32,0,0,1,1.71-.72,5.16,5.16,0,0,1,1.29-.12,3.14,3.14,0,0,1,1.13.25,2.28,2.28,0,0,1,.88.68,2.77,2.77,0,0,1,.52,1.17A4,4,0,0,1,96,9.49a3,3,0,0,1-.43,1.23,3.52,3.52,0,0,1-1,1,4.35,4.35,0,0,1-1.61.66,3.48,3.48,0,0,1-2.65-.26A2.9,2.9,0,0,1,89,10.2ZM101.78,28a17.28,17.28,0,0,1-1.42,1.71,18.51,18.51,0,0,1-1.92,1.79A17.23,17.23,0,0,1,96.24,33a7.77,7.77,0,0,1-2.25.91,4.52,4.52,0,0,1-1.73.08A2.84,2.84,0,0,1,91,33.47a3,3,0,0,1-.86-1.08,6.5,6.5,0,0,1-.52-1.54A17,17,0,0,1,89.28,28q-0.07-1.65,0-3.45T89.37,21q0.08-1.8.12-3.3a1.74,1.74,0,0,1,.35-1,3.51,3.51,0,0,1,.78-0.77,5.16,5.16,0,0,1,1-.55,5.4,5.4,0,0,1,1-.32,1.55,1.55,0,0,1,1.15.06,1.12,1.12,0,0,1,.46.73,5.86,5.86,0,0,1,.07,1.25q0,0.83-.09,1.9T94,21.29q-0.08,1.23-.11,2.44t0,2.36a11.91,11.91,0,0,0,.23,2,4,4,0,0,0,.49,1.32,0.77,0.77,0,0,0,.89.34A3.23,3.23,0,0,0,96.93,29a13.9,13.9,0,0,0,1.45-1.52q0.71-.86,1.38-1.77t1.18-1.55Z"/>
    <path class="cls-1" d="M100.44,28.36q-0.27-1.26-.47-2.94T99.62,22q-0.14-1.76-.19-3.4t0-2.83a3.06,3.06,0,0,1,.5-1.65,2.28,2.28,0,0,1,1.5-.94,1.6,1.6,0,0,1,1.57.32,3.18,3.18,0,0,1,.76,1.59,7.31,7.31,0,0,1,.11.79q0,0.5.09,1.1T104,18.19q0,0.64.07,1.18t0.05,0.95a4.44,4.44,0,0,0,.06.54l0.38-.08,0.22-.76,0.34-1.2q0.19-.68.42-1.44T106,15.93q0.19-.69.36-1.23l0.25-.79a3.53,3.53,0,0,1,1.09-1.71,4,4,0,0,1,1.66-.76,1.8,1.8,0,0,1,1.69.48A3.89,3.89,0,0,1,112,14a4.83,4.83,0,0,1,.07.72q0,0.52,0,1.23c0,0.48,0,1,0,1.57s0,1.15.07,1.74,0.08,1.17.15,1.75,0.15,1.09.25,1.57a5.57,5.57,0,0,0,.72,1.88,1,1,0,0,0,1.09.56,1.64,1.64,0,0,0,.62-0.31,6.65,6.65,0,0,0,.71-0.62,10.3,10.3,0,0,0,.74-0.83q0.37-.46.73-0.94,0.82-1.11,1.68-2.48l1.25,4.21-0.8.93L118,26.53A14.55,14.55,0,0,1,116.56,28a10.68,10.68,0,0,1-1.67,1.16,6.87,6.87,0,0,1-1.94.73,2.16,2.16,0,0,1-2.09-1.14,11,11,0,0,1-1.67-4.29,22.1,22.1,0,0,1-.38-2.51q-0.13-1.36-.23-2.94l-0.31.07L105.4,30a2.51,2.51,0,0,1-.63,1.25,2.16,2.16,0,0,1-1,.53,2,2,0,0,1-2.26-.8,4.37,4.37,0,0,1-.62-1.21A12.58,12.58,0,0,1,100.44,28.36Z"/>
    <path class="cls-1" d="M126.45,24.84a10.25,10.25,0,0,1-1.83,1.94,4.91,4.91,0,0,1-2,1,4.6,4.6,0,0,1-1.87,0,4.75,4.75,0,0,1-1.77-.74,5.34,5.34,0,0,1-1.44-1.47,6.2,6.2,0,0,1-.89-2.18,11.71,11.71,0,0,1-.23-3,16.48,16.48,0,0,1,.47-3.19,17.07,17.07,0,0,1,1.08-3.08,13.65,13.65,0,0,1,1.63-2.69,10.5,10.5,0,0,1,2.09-2,6.48,6.48,0,0,1,2.47-1.12,1.22,1.22,0,0,1,.72,0,1.79,1.79,0,0,1,.5.3L125.76,9a0.91,0.91,0,0,0,.45.22,1.8,1.8,0,0,0,.5,0l0.49-.08,0.43-.1,0.43-.1a2.42,2.42,0,0,1,.55-0.06,0.93,0.93,0,0,1,.49.15,1.3,1.3,0,0,1,.41.47,3.4,3.4,0,0,1,.31.91c0.07,0.33.14,0.78,0.21,1.35s0.13,1.21.19,1.92,0.12,1.46.17,2.25,0.11,1.57.15,2.33q0.17,2.72.3,5.83A14.68,14.68,0,0,0,131.9,23a13.42,13.42,0,0,0,1.21-1.6q0.65-1,1.4-2.41t1.62-3.52l1.83,4a8,8,0,0,1-.63,1.4q-0.41.74-.94,1.5T135.29,24q-0.59.74-1.17,1.4-1.36,1.57-3,3.12,0.08,2.12,0,4.17a29.92,29.92,0,0,1-.39,3.88,20.94,20.94,0,0,1-.88,3.44,11.63,11.63,0,0,1-1.44,2.85,8.5,8.5,0,0,1-2.11,2.1,7.91,7.91,0,0,1-2.88,1.21,8.33,8.33,0,0,1-1.43.17,4,4,0,0,1-1.51-.24,3.21,3.21,0,0,1-1.31-.92,4.14,4.14,0,0,1-.85-1.9,5.32,5.32,0,0,1,0-2,14.41,14.41,0,0,1,.71-2.53,27.6,27.6,0,0,1,1.28-2.87q0.77-1.51,1.73-3.06t2-3.08q1.08-1.53,2.21-3Zm-5.12-3.27a6.34,6.34,0,0,0,.27.91,2.8,2.8,0,0,0,.41.75,1.61,1.61,0,0,0,.58.47,1.19,1.19,0,0,0,.77.06,1.76,1.76,0,0,0,1.15-.89,6.08,6.08,0,0,0,.68-1.68,10.78,10.78,0,0,0,.3-1.92,11,11,0,0,0,0-1.6l0-5.86a3.32,3.32,0,0,0-1.44.72,5.81,5.81,0,0,0-1.17,1.36,9.65,9.65,0,0,0-.88,1.79,12.19,12.19,0,0,0-.57,2,11.6,11.6,0,0,0-.21,2A8.15,8.15,0,0,0,121.33,21.56Zm1.53,20.85a2.79,2.79,0,0,0,1.42-.79,5.68,5.68,0,0,0,1.05-1.52,10.82,10.82,0,0,0,.72-2,19.89,19.89,0,0,0,.45-2.19q0.16-1.1.22-2.13t0-1.83a14.27,14.27,0,0,0-1.26,1.51q-0.63.85-1.19,1.8t-1,1.93q-0.48,1-.81,1.86A10.13,10.13,0,0,0,122,40.7a3,3,0,0,0,0,1.17A0.67,0.67,0,0,0,122.87,42.41Z"/>
  </g>
</svg>
